# xmcd
#
# Track frame offsets:
#	150
#	11693
#	21802
#	34524
#	46511
#	58470
#	69211
#	81788
#	93534
#	105985
#	115924
#	126663
#	138360
#	149397
#	160400
#	170414
#	183056
#	194378
#	207009
#	217468
#	226760
#	237516
#	247774
#	259722
#	270130
#	281514
#	289264
#	298301
#	310989
#	319893
#
# Disc length: 4374 seconds
#
# Revision: 0
# Processed by: cddbd v1.5.2PL0 Copyright (c) Steve Scherf et al.
# Submitted via: EasyCDDAExtractor 15.3.0.1
#
DISCID=b811141e
DTITLE=Various Artist - Hillbilly On A Budget - Tops Parade Of Hits
DYEAR=1900
DGENRE=
TTITLE0=Outpost Scotty and The Bar-X-Boys - Shot Gun Boogie
TTITLE1=Outpost Scotty and The Bar-X-Boys - Moanin' The Blues
TTITLE2=Outpost Scotty and The Bar-X-Boys - Golden Rocket
TTITLE3=Turley Dick and The Bar-X-Boys - Back Street Affair
TTITLE4=Gillman Del and His Bar-X-Boys - I Want To Be With You Always
TTITLE5=Howard Rusty and The Bar-X-Boys - Blackberry Boogie
TTITLE6=Carpenter Corky and The Billy Boys - Gal Who Invented Kissin'
TTITLE7=Howard Rusty and Rhythm Rangers - Kawliga
TTITLE8=Carpenter Corky and Rhythm Rangers - I'll Go On Alone
TTITLE9=Sandy Bob and International Cowboys - Trademark
TTITLE10=Arnold Tex and Bar-X-Boys - Mama Come Get Your Baby Boy
TTITLE11=Sandy Bob and Rhythm Rangers - Satisfaction Guaranteed
TTITLE12=Sandy Bob and Rhythm Rangers - Let Me Be The One
TTITLE13=Howard Rusty and Rhythm Rangers - Shake A Hand
TTITLE14=Johnson Cliff and Harmony Boys - If You Don't Somebody Else Will
TTITLE15=Johnson Cliff and Harmony Boys - Whatcha Gonna Do Now
TTITLE16=Patterson Pat and Texas Wranglers - That's All Right
TTITLE17=Patterson Pat and Texas Wranglers - Making Believe
TTITLE18=Patterson Pat and Glenda Smith - Are You Mine
TTITLE19=Patterson Pat and Texas Wranglers - In The Jailhouse Now
TTITLE20=Sandy Bob and Rhythm Rangers - I Don't Care
TTITLE21=Sandy Bob and Rhythm Rangers - Cry Cry Cry
TTITLE22=Sandy Bob - I Forgot To Remember To Forget
TTITLE23=Sandy Bob and Rhythm Rangers - Why Baby Why
TTITLE24=Sandy Bob and Rhythm Rangers - Trouble In Mind
TTITLE25=Sandy Bob and Rhythm Rangers - I Don't Believe You've Met My Baby
TTITLE26=Howard Rusty and Rhythm Rangers - I've Got Five Dollars
TTITLE27=Howard Rusty and Rhythm Rangers - Folsom Prison Blues
TTITLE28=Smith Hank (Leon Payne) and Nashville Playboys - Blue Suede Shoes
TTITLE29=Smith Hank (George Jones) and Nashville Playboys - Heartbreak Hotel
EXTD=
EXTT0=
EXTT1=
EXTT2=
EXTT3=
EXTT4=
EXTT5=
EXTT6=
EXTT7=
EXTT8=
EXTT9=
EXTT10=
EXTT11=
EXTT12=
EXTT13=
EXTT14=
EXTT15=
EXTT16=
EXTT17=
EXTT18=
EXTT19=
EXTT20=
EXTT21=
EXTT22=
EXTT23=
EXTT24=
EXTT25=
EXTT26=
EXTT27=
EXTT28=
EXTT29=
PLAYORDER=
